<?xml version="1.0" encoding="UTF-8" standalone="no"?><svg xmlns="http://www.w3.org/2000/svg" xmlns:xlink="http://www.w3.org/1999/xlink" contentStyleType="text/css" height="740.625px" preserveAspectRatio="none" style="width:635px;height:740px;background:#F9F9F9;" version="1.1" viewBox="0 0 635 740" width="635.9375px" zoomAndPan="magnify"><defs/><g><rect fill="#F9F9F9" height="41.0889" id="_title" rx="11.7188" ry="11.7188" style="stroke:none;stroke-width:1.5625;" width="532.8125" x="40.7813" y="7.8125"/><text fill="#000000" font-family="sans-serif" font-size="21.875" font-weight="bold" lengthAdjust="spacing" textLength="517.1875" x="48.5938" y="35.9299">Vendor Management System - ER Diagram</text><!--MD5=[82eab7c35110598490f7b08b869827ab]
class Vendor--><g id="elem_Vendor"><rect codeLine="10" fill="#F1F1F1" height="75" id="Vendor" rx="11.7188" ry="11.7188" style="stroke:#181818;stroke-width:0.78125;" width="128.125" x="147.1875" y="69.2139"/><ellipse cx="170.625" cy="94.2139" fill="#ADD1B2" rx="17.1875" ry="17.1875" style="stroke:#181818;stroke-width:1.5625;"/><path d="M177.0459,103.5889 L164.9854,103.5889 L164.9854,84.2285 L177.0459,84.2285 L177.0459,87.5977 L168.8184,87.5977 L168.8184,91.7725 L176.2646,91.7725 L176.2646,95.1416 L168.8184,95.1416 L168.8184,100.2197 L177.0459,100.2197 L177.0459,103.5889 Z " fill="#000000"/><text fill="#000000" font-family="sans-serif" font-size="21.875" lengthAdjust="spacing" textLength="78.125" x="192.5" y="101.7868">Vendor</text><line style="stroke:#181818;stroke-width:0.78125;" x1="148.75" x2="273.75" y1="119.2139" y2="119.2139"/><line style="stroke:#181818;stroke-width:0.78125;" x1="148.75" x2="273.75" y1="131.7139" y2="131.7139"/></g><!--MD5=[3aa0d89c6bfdcbf7f32042cedac57549]
class Vehicle--><g id="elem_Vehicle"><rect codeLine="11" fill="#F1F1F1" height="75" id="Vehicle" rx="11.7188" ry="11.7188" style="stroke:#181818;stroke-width:0.78125;" width="128.125" x="101.875" y="459.8389"/><ellipse cx="125.3125" cy="484.8389" fill="#ADD1B2" rx="17.1875" ry="17.1875" style="stroke:#181818;stroke-width:1.5625;"/><path d="M131.7334,494.2139 L119.6729,494.2139 L119.6729,474.8535 L131.7334,474.8535 L131.7334,478.2227 L123.5059,478.2227 L123.5059,482.3975 L130.9521,482.3975 L130.9521,485.7666 L123.5059,485.7666 L123.5059,490.8447 L131.7334,490.8447 L131.7334,494.2139 Z " fill="#000000"/><text fill="#000000" font-family="sans-serif" font-size="21.875" lengthAdjust="spacing" textLength="78.125" x="147.1875" y="492.4118">Vehicle</text><line style="stroke:#181818;stroke-width:0.78125;" x1="103.4375" x2="228.4375" y1="509.8389" y2="509.8389"/><line style="stroke:#181818;stroke-width:0.78125;" x1="103.4375" x2="228.4375" y1="522.3389" y2="522.3389"/></g><!--MD5=[eee9d396a8aca12c6c152931e8dc1ab6]
class Driver--><g id="elem_Driver"><rect codeLine="12" fill="#F1F1F1" height="75" id="Driver" rx="11.7188" ry="11.7188" style="stroke:#181818;stroke-width:0.78125;" width="112.5" x="109.6875" y="655.1514"/><ellipse cx="133.125" cy="680.1514" fill="#ADD1B2" rx="17.1875" ry="17.1875" style="stroke:#181818;stroke-width:1.5625;"/><path d="M139.5459,689.5264 L127.4854,689.5264 L127.4854,670.166 L139.5459,670.166 L139.5459,673.5352 L131.3184,673.5352 L131.3184,677.71 L138.7646,677.71 L138.7646,681.0791 L131.3184,681.0791 L131.3184,686.1572 L139.5459,686.1572 L139.5459,689.5264 Z " fill="#000000"/><text fill="#000000" font-family="sans-serif" font-size="21.875" lengthAdjust="spacing" textLength="62.5" x="155" y="687.7243">Driver</text><line style="stroke:#181818;stroke-width:0.78125;" x1="111.25" x2="220.625" y1="705.1514" y2="705.1514"/><line style="stroke:#181818;stroke-width:0.78125;" x1="111.25" x2="220.625" y1="717.6514" y2="717.6514"/></g><!--MD5=[59b530d44ae785dc18db921986a9c15c]
class Document--><g id="elem_Document"><rect codeLine="13" fill="#F1F1F1" height="75" id="Document" rx="11.7188" ry="11.7188" style="stroke:#181818;stroke-width:0.78125;" width="164.0625" x="224.5312" y="264.5264"/><ellipse cx="247.9687" cy="289.5264" fill="#ADD1B2" rx="17.1875" ry="17.1875" style="stroke:#181818;stroke-width:1.5625;"/><path d="M254.3896,298.9014 L242.3291,298.9014 L242.3291,279.541 L254.3896,279.541 L254.3896,282.9102 L246.1621,282.9102 L246.1621,287.085 L253.6084,287.085 L253.6084,290.4541 L246.1621,290.4541 L246.1621,295.5322 L254.3896,295.5322 L254.3896,298.9014 Z " fill="#000000"/><text fill="#000000" font-family="sans-serif" font-size="21.875" lengthAdjust="spacing" textLength="114.0625" x="269.8438" y="297.0993">Document</text><line style="stroke:#181818;stroke-width:0.78125;" x1="226.0937" x2="387.0313" y1="314.5264" y2="314.5264"/><line style="stroke:#181818;stroke-width:0.78125;" x1="226.0937" x2="387.0313" y1="327.0264" y2="327.0264"/></g><!--MD5=[4c3ceef50c2dcf6ab3f0f048f842acce]
class Permissions--><g id="elem_Permissions"><rect codeLine="14" fill="#F1F1F1" height="75" id="Permissions" rx="11.7188" ry="11.7188" style="stroke:#181818;stroke-width:0.78125;" width="181.25" x="444.0625" y="264.5264"/><ellipse cx="467.5" cy="289.5264" fill="#ADD1B2" rx="17.1875" ry="17.1875" style="stroke:#181818;stroke-width:1.5625;"/><path d="M473.9209,298.9014 L461.8604,298.9014 L461.8604,279.541 L473.9209,279.541 L473.9209,282.9102 L465.6934,282.9102 L465.6934,287.085 L473.1396,287.085 L473.1396,290.4541 L465.6934,290.4541 L465.6934,295.5322 L473.9209,295.5322 L473.9209,298.9014 Z " fill="#000000"/><text fill="#000000" font-family="sans-serif" font-size="21.875" lengthAdjust="spacing" textLength="131.25" x="489.375" y="297.0993">Permissions</text><line style="stroke:#181818;stroke-width:0.78125;" x1="445.625" x2="623.75" y1="314.5264" y2="314.5264"/><line style="stroke:#181818;stroke-width:0.78125;" x1="445.625" x2="623.75" y1="327.0264" y2="327.0264"/></g><!--MD5=[a0de21ccaf7113d4350fc9cb1c82beb8]
link Vendor to Vendor--><g id="link_Vendor_Vendor"><path codeLine="17" d="M288.0781,88.5732 C311.5781,88.9795 330,95.0264 330,106.7139 C330,118.4014 311.5781,124.4482 288.0781,124.8545 " fill="none" id="Vendor-Vendor" style="stroke:#2F4F4F;stroke-width:1.5625;"/><line style="stroke:#2F4F4F;stroke-width:1.5625;" x1="287.8873" x2="275.173" y1="124.8477" y2="133.9301"/><line style="stroke:#2F4F4F;stroke-width:1.5625;" x1="287.8873" x2="275.6082" y1="124.8477" y2="115.1851"/><line style="stroke:#2F4F4F;stroke-width:1.5625;" x1="287.8873" x2="275.3906" y1="124.8477" y2="124.5576"/><ellipse cx="297.2597" cy="125.0653" fill="none" rx="6.25" ry="6.25" style="stroke:#2F4F4F;stroke-width:1.5625;"/><line style="stroke:#2F4F4F;stroke-width:1.5625;" x1="281.784" x2="281.4939" y1="94.9734" y2="82.4768"/><line style="stroke:#2F4F4F;stroke-width:1.5625;" x1="286.4702" x2="286.1801" y1="94.8646" y2="82.368"/><line style="stroke:#2F4F4F;stroke-width:1.5625;" x1="287.8873" x2="275.3906" y1="88.58" y2="88.8701"/><text fill="#000000" font-family="sans-serif" font-size="20.3125" lengthAdjust="spacing" textLength="154.6875" x="339.375" y="113.8496">parentVendorId</text></g><!--MD5=[74c495d92b9059851e964515727b4adc]
link Vendor to Vehicle--><g id="link_Vendor_Vehicle"><path codeLine="18" d="M184.6094,156.1826 C169.4219,186.2764 151.8906,226.4795 144.0625,264.5264 C131.2344,326.8076 142.5156,400.0889 153.0625,447.1982 " fill="none" id="Vendor-Vehicle" style="stroke:#2F4F4F;stroke-width:1.5625;"/><line style="stroke:#2F4F4F;stroke-width:1.5625;" x1="153.1632" x2="165.1304" y1="447.5869" y2="457.6331"/><line style="stroke:#2F4F4F;stroke-width:1.5625;" x1="153.1632" x2="146.8696" y1="447.5869" y2="461.8884"/><line style="stroke:#2F4F4F;stroke-width:1.5625;" x1="153.1632" x2="156" y1="447.5869" y2="459.7607"/><ellipse cx="151.0355" cy="438.4565" fill="none" rx="6.25" ry="6.25" style="stroke:#2F4F4F;stroke-width:1.5625;"/><line style="stroke:#2F4F4F;stroke-width:1.5625;" x1="182.084" x2="193.2012" y1="147.4619" y2="153.1767"/><line style="stroke:#2F4F4F;stroke-width:1.5625;" x1="179.941" x2="191.0581" y1="151.6308" y2="157.3457"/><line style="stroke:#2F4F4F;stroke-width:1.5625;" x1="184.7852" x2="190.5" y1="155.8779" y2="144.7607"/><text fill="#000000" font-family="sans-serif" font-size="20.3125" lengthAdjust="spacing" textLength="50" x="145.625" y="309.1621">owns</text></g><!--MD5=[21643899267a7017eba33e583e4717af]
link Vendor to Driver--><g id="link_Vendor_Driver"><path codeLine="19" d="M169.3125,154.1357 C125.1719,205.9951 58.7969,295.167 34.6875,386.4014 C9.375,482.2139 77.3594,586.8545 124.6875,645.1826 " fill="none" id="Vendor-Driver" style="stroke:#2F4F4F;stroke-width:1.5625;"/><line style="stroke:#2F4F4F;stroke-width:1.5625;" x1="124.6982" x2="139.8918" y1="645.2123" y2="648.8586"/><line style="stroke:#2F4F4F;stroke-width:1.5625;" x1="124.6982" x2="125.452" y1="645.2123" y2="660.8191"/><line style="stroke:#2F4F4F;stroke-width:1.5625;" x1="124.6982" x2="132.6719" y1="645.2123" y2="654.8389"/><ellipse cx="118.7179" cy="637.9925" fill="none" rx="6.25" ry="6.25" style="stroke:#2F4F4F;stroke-width:1.5625;"/><line style="stroke:#2F4F4F;stroke-width:1.5625;" x1="169.013" x2="178.4753" y1="144.9236" y2="153.0915"/><line style="stroke:#2F4F4F;stroke-width:1.5625;" x1="165.95" x2="175.4123" y1="148.4719" y2="156.6398"/><line style="stroke:#2F4F4F;stroke-width:1.5625;" x1="169.6602" x2="177.8281" y1="153.7387" y2="144.2764"/><text fill="#000000" font-family="sans-serif" font-size="20.3125" lengthAdjust="spacing" textLength="93.75" x="36.25" y="406.8184">manages</text></g><!--MD5=[938ae9671fe8b468fa0ba4b88d3cd235]
link Vendor to Document--><g id="link_Vendor_Document"><path codeLine="20" d="M234.8281,155.8232 C249.5469,185.4951 268.4063,223.542 283.1094,253.167 " fill="none" id="Vendor-Document" style="stroke:#2F4F4F;stroke-width:1.5625;"/><line style="stroke:#2F4F4F;stroke-width:1.5625;" x1="283.1643" x2="297.1173" y1="253.2814" y2="260.3137"/><line style="stroke:#2F4F4F;stroke-width:1.5625;" x1="283.1643" x2="280.3202" y1="253.2814" y2="268.6453"/><line style="stroke:#2F4F4F;stroke-width:1.5625;" x1="283.1643" x2="288.7188" y1="253.2814" y2="264.4795"/><ellipse cx="278.9985" cy="244.8828" fill="none" rx="6.25" ry="6.25" style="stroke:#2F4F4F;stroke-width:1.5625;"/><line style="stroke:#2F4F4F;stroke-width:1.5625;" x1="226.35" x2="237.5482" y1="152.8089" y2="147.2545"/><line style="stroke:#2F4F4F;stroke-width:1.5625;" x1="228.433" x2="239.6311" y1="157.0082" y2="151.4538"/><line style="stroke:#2F4F4F;stroke-width:1.5625;" x1="234.7263" x2="229.1719" y1="155.6307" y2="144.4326"/><text fill="#000000" font-family="sans-serif" font-size="20.3125" lengthAdjust="spacing" textLength="78.125" x="267.5" y="211.5059">uploads</text></g><!--MD5=[a520d0118f03a4ccc582c55b346695db]
link Vendor to Permissions--><g id="link_Vendor_Permissions"><path codeLine="21" d="M285.9375,148.9951 C309.6562,162.1826 335.9063,177.0264 359.6875,191.0889 C396.1875,212.6514 436.3281,237.6514 468.9531,258.292 " fill="none" id="Vendor-Permissions" style="stroke:#2F4F4F;stroke-width:1.5625;"/><line style="stroke:#2F4F4F;stroke-width:1.5625;" x1="476.436" x2="469.7515" y1="255.6528" y2="266.2154"/><line style="stroke:#2F4F4F;stroke-width:1.5625;" x1="472.475" x2="465.7905" y1="253.1461" y2="263.7087"/><line style="stroke:#2F4F4F;stroke-width:1.5625;" x1="467.8125" x2="478.375" y1="257.5919" y2="264.2764"/><line style="stroke:#2F4F4F;stroke-width:1.5625;" x1="278.3775" x2="284.4329" y1="151.9436" y2="141.0082"/><line style="stroke:#2F4F4F;stroke-width:1.5625;" x1="282.4783" x2="288.5336" y1="154.2144" y2="143.279"/><line style="stroke:#2F4F4F;stroke-width:1.5625;" x1="286.8729" x2="275.9375" y1="149.5036" y2="143.4482"/><text fill="#000000" font-family="sans-serif" font-size="20.3125" lengthAdjust="spacing" textLength="156.25" x="403.4375" y="211.5059">hasPermissions</text></g><!--MD5=[7227457bb092ac318691b8b1f8f39355]
link Vehicle to Driver--><g id="link_Vehicle_Driver"><path codeLine="22" d="M165.9375,547.7764 C165.9375,576.7764 165.9375,613.417 165.9375,642.3857 " fill="none" id="Vehicle-Driver" style="stroke:#2F4F4F;stroke-width:1.5625;"/><line style="stroke:#2F4F4F;stroke-width:1.5625;" x1="165.9375" x2="175.3125" y1="642.6045" y2="655.1045"/><line style="stroke:#2F4F4F;stroke-width:1.5625;" x1="165.9375" x2="156.5625" y1="642.6045" y2="655.1045"/><line style="stroke:#2F4F4F;stroke-width:1.5625;" x1="165.9375" x2="165.9375" y1="642.6045" y2="655.1045"/><ellipse cx="165.9375" cy="633.2295" fill="none" rx="6.25" ry="6.25" style="stroke:#2F4F4F;stroke-width:1.5625;"/><line style="stroke:#2F4F4F;stroke-width:1.5625;" x1="159.6875" x2="172.1875" y1="541.3076" y2="541.3076"/><line style="stroke:#2F4F4F;stroke-width:1.5625;" x1="159.6875" x2="172.1875" y1="545.9951" y2="545.9951"/><line style="stroke:#2F4F4F;stroke-width:1.5625;" x1="165.9375" x2="165.9375" y1="547.5576" y2="535.0576"/><text fill="#000000" font-family="sans-serif" font-size="20.3125" lengthAdjust="spacing" textLength="75" x="167.5" y="602.1309">assigns</text></g><!--MD5=[06fc4169b69e8981dbe272261c69611e]
link Document to Driver--><g id="link_Document_Driver"><path codeLine="23" d="M391.4688,347.542 C413.2656,365.1826 428.2969,387.417 419.0625,412.9639 C382.9688,512.792 290.6094,598.0107 228.0156,646.9014 " fill="none" id="Document-Driver" style="stroke:#2F4F4F;stroke-width:1.5625;"/><line style="stroke:#2F4F4F;stroke-width:1.5625;" x1="226.2337" x2="218.6091" y1="656.1511" y2="646.2458"/><line style="stroke:#2F4F4F;stroke-width:1.5625;" x1="229.9482" x2="222.3236" y1="653.2918" y2="643.3865"/><line style="stroke:#2F4F4F;stroke-width:1.5625;" x1="227.3741" x2="217.4688" y1="647.3861" y2="655.0107"/><line style="stroke:#2F4F4F;stroke-width:1.5625;" x1="391.0656" x2="375.4406" y1="347.2357" y2="347.2748"/><line style="stroke:#2F4F4F;stroke-width:1.5625;" x1="391.0656" x2="386.6531" y1="347.2357" y2="332.2467"/><line style="stroke:#2F4F4F;stroke-width:1.5625;" x1="391.0656" x2="381.0469" y1="347.2357" y2="339.7607"/><ellipse cx="398.5796" cy="352.842" fill="none" rx="6.25" ry="6.25" style="stroke:#2F4F4F;stroke-width:1.5625;"/><text fill="#000000" font-family="sans-serif" font-size="20.3125" lengthAdjust="spacing" textLength="195.3125" x="395.625" y="504.4746">ownerType = Driver</text></g><!--MD5=[82c8f317d19de3e63f0092826b051bfd]
link Document to Vehicle--><g id="link_Document_Vehicle"><path codeLine="24" d="M238.8281,347.5889 C225.1563,358.917 211.9063,372.0264 201.875,386.4014 C189.3906,404.2764 181.0156,426.792 175.5313,446.7295 " fill="none" id="Document-Vehicle" style="stroke:#2F4F4F;stroke-width:1.5625;"/><line style="stroke:#2F4F4F;stroke-width:1.5625;" x1="179.9016" x2="167.7814" y1="454.8546" y2="451.7967"/><line style="stroke:#2F4F4F;stroke-width:1.5625;" x1="181.0483" x2="168.9281" y1="450.3096" y2="447.2516"/><line style="stroke:#2F4F4F;stroke-width:1.5625;" x1="175.3704" x2="172.3125" y1="447.2656" y2="459.3857"/><line style="stroke:#2F4F4F;stroke-width:1.5625;" x1="239.0412" x2="242.9962" y1="347.4273" y2="332.3111"/><line style="stroke:#2F4F4F;stroke-width:1.5625;" x1="239.0412" x2="254.6601" y1="347.4273" y2="346.9916"/><line style="stroke:#2F4F4F;stroke-width:1.5625;" x1="239.0412" x2="248.8281" y1="347.4273" y2="339.6514"/><ellipse cx="231.7009" cy="353.2593" fill="none" rx="6.25" ry="6.25" style="stroke:#2F4F4F;stroke-width:1.5625;"/><text fill="#000000" font-family="sans-serif" font-size="20.3125" lengthAdjust="spacing" textLength="207.8125" x="203.4375" y="406.8184">ownerType = Vehicle</text></g><!--MD5=[cea8340f724a4368a0566e0925174a8d]
@startuml
title Vendor Management System - ER Diagram
skinparam backgroundColor #F9F9F9
skinparam entityBorderColor #4A90E2
skinparam entityBackgroundColor #EAF3FC
skinparam ArrowColor #2F4F4F
skinparam roundcorner 15
skinparam shadowing false
skinparam dpi 150

entity "Vendor" as Vendor
entity "Vehicle" as Vehicle
entity "Driver" as Driver
entity "Document" as Document
entity "Permissions" as Permissions

' ===== Relationships =====
Vendor ||- -o{ Vendor : "parentVendorId"
Vendor ||- -o{ Vehicle : "owns"
Vendor ||- -o{ Driver : "manages"
Vendor ||- -o{ Document : "uploads"
Vendor ||- -|| Permissions : "hasPermissions"
Vehicle ||- -o{ Driver : "assigns"
Document }o- -|| Driver : "ownerType = Driver"
Document }o- -|| Vehicle : "ownerType = Vehicle"
@enduml

@startuml
title Vendor Management System - ER Diagram
skinparam backgroundColor #F9F9F9
skinparam entityBorderColor #4A90E2
skinparam entityBackgroundColor #EAF3FC
skinparam ArrowColor #2F4F4F
skinparam roundcorner 15
skinparam shadowing false
skinparam dpi 150

entity "Vendor" as Vendor
entity "Vehicle" as Vehicle
entity "Driver" as Driver
entity "Document" as Document
entity "Permissions" as Permissions

Vendor ||- -o{ Vendor : "parentVendorId"
Vendor ||- -o{ Vehicle : "owns"
Vendor ||- -o{ Driver : "manages"
Vendor ||- -o{ Document : "uploads"
Vendor ||- -|| Permissions : "hasPermissions"
Vehicle ||- -o{ Driver : "assigns"
Document }o- -|| Driver : "ownerType = Driver"
Document }o- -|| Vehicle : "ownerType = Vehicle"
@enduml

PlantUML version 1.2022.7(Mon Aug 22 17:01:30 UTC 2022)
(GPL source distribution)
Java Runtime: OpenJDK Runtime Environment
JVM: OpenJDK 64-Bit Server VM
Default Encoding: UTF-8
Language: en
Country: null
--></g></svg>