<?xml version="1.0" encoding="UTF-8" standalone="no"?><svg xmlns="http://www.w3.org/2000/svg" xmlns:xlink="http://www.w3.org/1999/xlink" contentStyleType="text/css" height="740.625px" preserveAspectRatio="none" style="width:731px;height:740px;background:#F9F9F9;" version="1.1" viewBox="0 0 731 740" width="731.25px" zoomAndPan="magnify"><defs/><g><rect fill="#F9F9F9" height="41.0889" id="_title" rx="11.7188" ry="11.7188" style="stroke:none;stroke-width:1.5625;" width="532.8125" x="88.7656" y="7.8125"/><text fill="#000000" font-family="sans-serif" font-size="21.875" font-weight="bold" lengthAdjust="spacing" textLength="517.1875" x="96.5781" y="35.9299">Vendor Management System - ER Diagram</text><!--MD5=[82eab7c35110598490f7b08b869827ab]
class Vendor--><g id="elem_Vendor"><rect codeLine="10" fill="#F1F1F1" height="75" id="Vendor" rx="11.7188" ry="11.7188" style="stroke:#181818;stroke-width:0.78125;" width="128.125" x="222.8438" y="69.2139"/><ellipse cx="246.2813" cy="94.2139" fill="#ADD1B2" rx="17.1875" ry="17.1875" style="stroke:#181818;stroke-width:1.5625;"/><path d="M252.7021,103.5889 L240.6416,103.5889 L240.6416,84.2285 L252.7021,84.2285 L252.7021,87.5977 L244.4746,87.5977 L244.4746,91.7725 L251.9209,91.7725 L251.9209,95.1416 L244.4746,95.1416 L244.4746,100.2197 L252.7021,100.2197 L252.7021,103.5889 Z " fill="#000000"/><text fill="#000000" font-family="sans-serif" font-size="21.875" lengthAdjust="spacing" textLength="78.125" x="268.1563" y="101.7868">Vendor</text><line style="stroke:#181818;stroke-width:0.78125;" x1="224.4063" x2="349.4063" y1="119.2139" y2="119.2139"/><line style="stroke:#181818;stroke-width:0.78125;" x1="224.4063" x2="349.4063" y1="131.7139" y2="131.7139"/></g><!--MD5=[3aa0d89c6bfdcbf7f32042cedac57549]
class Vehicle--><g id="elem_Vehicle"><rect codeLine="11" fill="#F1F1F1" height="75" id="Vehicle" rx="11.7188" ry="11.7188" style="stroke:#181818;stroke-width:0.78125;" width="128.125" x="152.5313" y="459.8389"/><ellipse cx="175.9688" cy="484.8389" fill="#ADD1B2" rx="17.1875" ry="17.1875" style="stroke:#181818;stroke-width:1.5625;"/><path d="M182.3896,494.2139 L170.3291,494.2139 L170.3291,474.8535 L182.3896,474.8535 L182.3896,478.2227 L174.1621,478.2227 L174.1621,482.3975 L181.6084,482.3975 L181.6084,485.7666 L174.1621,485.7666 L174.1621,490.8447 L182.3896,490.8447 L182.3896,494.2139 Z " fill="#000000"/><text fill="#000000" font-family="sans-serif" font-size="21.875" lengthAdjust="spacing" textLength="78.125" x="197.8438" y="492.4118">Vehicle</text><line style="stroke:#181818;stroke-width:0.78125;" x1="154.0938" x2="279.0938" y1="509.8389" y2="509.8389"/><line style="stroke:#181818;stroke-width:0.78125;" x1="154.0938" x2="279.0938" y1="522.3389" y2="522.3389"/></g><!--MD5=[eee9d396a8aca12c6c152931e8dc1ab6]
class Driver--><g id="elem_Driver"><rect codeLine="12" fill="#F1F1F1" height="75" id="Driver" rx="11.7188" ry="11.7188" style="stroke:#181818;stroke-width:0.78125;" width="112.5" x="160.3438" y="655.1514"/><ellipse cx="183.7813" cy="680.1514" fill="#ADD1B2" rx="17.1875" ry="17.1875" style="stroke:#181818;stroke-width:1.5625;"/><path d="M190.2021,689.5264 L178.1416,689.5264 L178.1416,670.166 L190.2021,670.166 L190.2021,673.5352 L181.9746,673.5352 L181.9746,677.71 L189.4209,677.71 L189.4209,681.0791 L181.9746,681.0791 L181.9746,686.1572 L190.2021,686.1572 L190.2021,689.5264 Z " fill="#000000"/><text fill="#000000" font-family="sans-serif" font-size="21.875" lengthAdjust="spacing" textLength="62.5" x="205.6563" y="687.7243">Driver</text><line style="stroke:#181818;stroke-width:0.78125;" x1="161.9063" x2="271.2813" y1="705.1514" y2="705.1514"/><line style="stroke:#181818;stroke-width:0.78125;" x1="161.9063" x2="271.2813" y1="717.6514" y2="717.6514"/></g><!--MD5=[59b530d44ae785dc18db921986a9c15c]
class Document--><g id="elem_Document"><rect codeLine="13" fill="#F1F1F1" height="75" id="Document" rx="11.7188" ry="11.7188" style="stroke:#181818;stroke-width:0.78125;" width="164.0625" x="320.5" y="264.5264"/><ellipse cx="343.9375" cy="289.5264" fill="#ADD1B2" rx="17.1875" ry="17.1875" style="stroke:#181818;stroke-width:1.5625;"/><path d="M350.3584,298.9014 L338.2979,298.9014 L338.2979,279.541 L350.3584,279.541 L350.3584,282.9102 L342.1309,282.9102 L342.1309,287.085 L349.5771,287.085 L349.5771,290.4541 L342.1309,290.4541 L342.1309,295.5322 L350.3584,295.5322 L350.3584,298.9014 Z " fill="#000000"/><text fill="#000000" font-family="sans-serif" font-size="21.875" lengthAdjust="spacing" textLength="114.0625" x="365.8125" y="297.0993">Document</text><line style="stroke:#181818;stroke-width:0.78125;" x1="322.0625" x2="483" y1="314.5264" y2="314.5264"/><line style="stroke:#181818;stroke-width:0.78125;" x1="322.0625" x2="483" y1="327.0264" y2="327.0264"/></g><!--MD5=[4c3ceef50c2dcf6ab3f0f048f842acce]
class Permissions--><g id="elem_Permissions"><rect codeLine="14" fill="#F1F1F1" height="75" id="Permissions" rx="11.7188" ry="11.7188" style="stroke:#181818;stroke-width:0.78125;" width="181.25" x="540.0313" y="264.5264"/><ellipse cx="563.4688" cy="289.5264" fill="#ADD1B2" rx="17.1875" ry="17.1875" style="stroke:#181818;stroke-width:1.5625;"/><path d="M569.8896,298.9014 L557.8291,298.9014 L557.8291,279.541 L569.8896,279.541 L569.8896,282.9102 L561.6621,282.9102 L561.6621,287.085 L569.1084,287.085 L569.1084,290.4541 L561.6621,290.4541 L561.6621,295.5322 L569.8896,295.5322 L569.8896,298.9014 Z " fill="#000000"/><text fill="#000000" font-family="sans-serif" font-size="21.875" lengthAdjust="spacing" textLength="131.25" x="585.3438" y="297.0993">Permissions</text><line style="stroke:#181818;stroke-width:0.78125;" x1="541.5938" x2="719.7188" y1="314.5264" y2="314.5264"/><line style="stroke:#181818;stroke-width:0.78125;" x1="541.5938" x2="719.7188" y1="327.0264" y2="327.0264"/></g><!--MD5=[a0de21ccaf7113d4350fc9cb1c82beb8]
link Vendor to Vendor--><g id="link_Vendor_Vendor"><path codeLine="17" d="M363.7344,88.5732 C387.2344,88.9795 405.6563,95.0264 405.6563,106.7139 C405.6563,118.4014 387.2344,124.4482 363.7344,124.8545 " fill="none" id="Vendor-Vendor" style="stroke:#2F4F4F;stroke-width:1.5625;"/><line style="stroke:#2F4F4F;stroke-width:1.5625;" x1="363.5435" x2="350.8293" y1="124.8477" y2="133.9301"/><line style="stroke:#2F4F4F;stroke-width:1.5625;" x1="363.5435" x2="351.2645" y1="124.8477" y2="115.1851"/><line style="stroke:#2F4F4F;stroke-width:1.5625;" x1="363.5435" x2="351.0469" y1="124.8477" y2="124.5576"/><ellipse cx="372.916" cy="125.0653" fill="none" rx="6.25" ry="6.25" style="stroke:#2F4F4F;stroke-width:1.5625;"/><line style="stroke:#2F4F4F;stroke-width:1.5625;" x1="357.4402" x2="357.1501" y1="94.9734" y2="82.4768"/><line style="stroke:#2F4F4F;stroke-width:1.5625;" x1="362.1265" x2="361.8364" y1="94.8646" y2="82.368"/><line style="stroke:#2F4F4F;stroke-width:1.5625;" x1="363.5435" x2="351.0469" y1="88.58" y2="88.8701"/><text fill="#000000" font-family="sans-serif" font-size="20.3125" lengthAdjust="spacing" textLength="195.3125" x="415.0313" y="113.8496">1:N parentVendorId</text></g><!--MD5=[74c495d92b9059851e964515727b4adc]
link Vendor to Vehicle--><g id="link_Vendor_Vehicle"><path codeLine="18" d="M252.4219,154.917 C232.6406,184.6357 209.75,224.8701 199.4063,264.5264 C183.375,325.9482 193.625,399.4326 203.8438,446.8232 " fill="none" id="Vendor-Vehicle" style="stroke:#2F4F4F;stroke-width:1.5625;"/><line style="stroke:#2F4F4F;stroke-width:1.5625;" x1="203.9348" x2="215.8453" y1="447.2743" y2="457.3876"/><line style="stroke:#2F4F4F;stroke-width:1.5625;" x1="203.9348" x2="197.5609" y1="447.2743" y2="461.5401"/><line style="stroke:#2F4F4F;stroke-width:1.5625;" x1="203.9348" x2="206.7031" y1="447.2743" y2="459.4639"/><ellipse cx="201.8585" cy="438.1321" fill="none" rx="6.25" ry="6.25" style="stroke:#2F4F4F;stroke-width:1.5625;"/><line style="stroke:#2F4F4F;stroke-width:1.5625;" x1="250.8481" x2="261.1831" y1="146.1157" y2="153.147"/><line style="stroke:#2F4F4F;stroke-width:1.5625;" x1="248.2114" x2="258.5463" y1="149.9913" y2="157.0226"/><line style="stroke:#2F4F4F;stroke-width:1.5625;" x1="252.4999" x2="259.5313" y1="154.7988" y2="144.4639"/><text fill="#000000" font-family="sans-serif" font-size="20.3125" lengthAdjust="spacing" textLength="90.625" x="200.9688" y="309.1621">1:N owns</text></g><!--MD5=[21643899267a7017eba33e583e4717af]
link Vendor to Driver--><g id="link_Vendor_Driver"><path codeLine="19" d="M228.2813,152.7764 C168.5938,202.2139 80,288.1357 44.7187,386.4014 C9.375,484.8857 99.4531,588.8076 162.1406,646.2451 " fill="none" id="Vendor-Driver" style="stroke:#2F4F4F;stroke-width:1.5625;"/><line style="stroke:#2F4F4F;stroke-width:1.5625;" x1="162.6419" x2="178.2053" y1="646.7005" y2="648.0859"/><line style="stroke:#2F4F4F;stroke-width:1.5625;" x1="162.6419" x2="165.6697" y1="646.7005" y2="662.0293"/><line style="stroke:#2F4F4F;stroke-width:1.5625;" x1="162.6419" x2="171.9375" y1="646.7005" y2="655.0576"/><ellipse cx="155.6702" cy="640.4327" fill="none" rx="6.25" ry="6.25" style="stroke:#2F4F4F;stroke-width:1.5625;"/><line style="stroke:#2F4F4F;stroke-width:1.5625;" x1="229.5323" x2="237.4575" y1="143.687" y2="153.3535"/><line style="stroke:#2F4F4F;stroke-width:1.5625;" x1="225.9073" x2="233.8325" y1="146.6589" y2="156.3254"/><line style="stroke:#2F4F4F;stroke-width:1.5625;" x1="228.6616" x2="238.3281" y1="152.4828" y2="144.5576"/><text fill="#000000" font-family="sans-serif" font-size="20.3125" lengthAdjust="spacing" textLength="134.375" x="46.2812" y="406.8184">1:N manages</text></g><!--MD5=[938ae9671fe8b468fa0ba4b88d3cd235]
link Vendor to Document--><g id="link_Vendor_Document"><path codeLine="20" d="M315.25,155.3857 C333.2031,185.2295 356.3438,223.6826 374.2813,253.5107 " fill="none" id="Vendor-Document" style="stroke:#2F4F4F;stroke-width:1.5625;"/><line style="stroke:#2F4F4F;stroke-width:1.5625;" x1="374.443" x2="388.9222" y1="253.7707" y2="259.6438"/><line style="stroke:#2F4F4F;stroke-width:1.5625;" x1="374.443" x2="372.859" y1="253.7707" y2="269.3152"/><line style="stroke:#2F4F4F;stroke-width:1.5625;" x1="374.443" x2="380.8906" y1="253.7707" y2="264.4795"/><ellipse cx="369.6073" cy="245.7391" fill="none" rx="6.25" ry="6.25" style="stroke:#2F4F4F;stroke-width:1.5625;"/><line style="stroke:#2F4F4F;stroke-width:1.5625;" x1="306.5204" x2="317.2331" y1="153.0095" y2="146.5685"/><line style="stroke:#2F4F4F;stroke-width:1.5625;" x1="308.9358" x2="319.6485" y1="157.0268" y2="150.5857"/><line style="stroke:#2F4F4F;stroke-width:1.5625;" x1="315.0973" x2="308.6563" y1="155.1454" y2="144.4326"/><text fill="#000000" font-family="sans-serif" font-size="20.3125" lengthAdjust="spacing" textLength="118.75" x="354.0937" y="211.5059">1:N uploads</text></g><!--MD5=[a520d0118f03a4ccc582c55b346695db]
link Vendor to Permissions--><g id="link_Vendor_Permissions"><path codeLine="21" d="M361.6719,133.9639 C400.2031,148.5107 447.2969,168.3232 486.9063,191.0889 C519.8906,210.042 553.8906,235.5889 580.5313,257.2139 " fill="none" id="Vendor-Permissions" style="stroke:#2F4F4F;stroke-width:1.5625;"/><line style="stroke:#2F4F4F;stroke-width:1.5625;" x1="588.4144" x2="580.485" y1="255.5895" y2="265.2526"/><line style="stroke:#2F4F4F;stroke-width:1.5625;" x1="584.7907" x2="576.8614" y1="252.616" y2="262.2791"/><line style="stroke:#2F4F4F;stroke-width:1.5625;" x1="579.6182" x2="589.2813" y1="256.4564" y2="264.3857"/><line style="stroke:#2F4F4F;stroke-width:1.5625;" x1="354.7061" x2="359.0699" y1="138.0494" y2="126.3359"/><line style="stroke:#2F4F4F;stroke-width:1.5625;" x1="359.0987" x2="363.4625" y1="139.6859" y2="127.9724"/><line style="stroke:#2F4F4F;stroke-width:1.5625;" x1="362.7448" x2="351.0313" y1="134.3746" y2="130.0107"/><text fill="#000000" font-family="sans-serif" font-size="20.3125" lengthAdjust="spacing" textLength="193.75" x="525.9688" y="211.5059">1:1 hasPermissions</text></g><!--MD5=[7227457bb092ac318691b8b1f8f39355]
link Vehicle to Driver--><g id="link_Vehicle_Driver"><path codeLine="22" d="M216.5938,547.7764 C216.5938,576.7764 216.5938,613.417 216.5938,642.3857 " fill="none" id="Vehicle-Driver" style="stroke:#2F4F4F;stroke-width:1.5625;"/><line style="stroke:#2F4F4F;stroke-width:1.5625;" x1="216.5938" x2="225.9688" y1="642.6045" y2="655.1045"/><line style="stroke:#2F4F4F;stroke-width:1.5625;" x1="216.5938" x2="207.2188" y1="642.6045" y2="655.1045"/><line style="stroke:#2F4F4F;stroke-width:1.5625;" x1="216.5938" x2="216.5938" y1="642.6045" y2="655.1045"/><ellipse cx="216.5938" cy="633.2295" fill="none" rx="6.25" ry="6.25" style="stroke:#2F4F4F;stroke-width:1.5625;"/><line style="stroke:#2F4F4F;stroke-width:1.5625;" x1="210.3438" x2="222.8438" y1="541.3076" y2="541.3076"/><line style="stroke:#2F4F4F;stroke-width:1.5625;" x1="210.3438" x2="222.8438" y1="545.9951" y2="545.9951"/><line style="stroke:#2F4F4F;stroke-width:1.5625;" x1="216.5938" x2="216.5938" y1="547.5576" y2="535.0576"/><text fill="#000000" font-family="sans-serif" font-size="20.3125" lengthAdjust="spacing" textLength="115.625" x="218.1563" y="602.1309">1:N assigns</text></g><!--MD5=[06fc4169b69e8981dbe272261c69611e]
link Document to Driver--><g id="link_Document_Driver"><path codeLine="23" d="M476.7344,347.6357 C496.9531,365.6357 511.1875,388.1045 502.5313,412.9639 C466.1406,517.542 430.2187,534.2764 347.8437,608.2764 C328.7344,625.4482 305.6406,641.3232 284.1875,654.4795 " fill="none" id="Document-Driver" style="stroke:#2F4F4F;stroke-width:1.5625;"/><line style="stroke:#2F4F4F;stroke-width:1.5625;" x1="281.7312" x2="275.3" y1="663.2482" y2="652.5296"/><line style="stroke:#2F4F4F;stroke-width:1.5625;" x1="285.7507" x2="279.3195" y1="660.8365" y2="650.1179"/><line style="stroke:#2F4F4F;stroke-width:1.5625;" x1="283.8749" x2="273.1563" y1="654.6733" y2="661.1045"/><line style="stroke:#2F4F4F;stroke-width:1.5625;" x1="476.7137" x2="461.1061" y1="347.6454" y2="346.9093"/><line style="stroke:#2F4F4F;stroke-width:1.5625;" x1="476.7137" x2="473.0502" y1="347.6454" y2="332.4559"/><line style="stroke:#2F4F4F;stroke-width:1.5625;" x1="476.7137" x2="467.0781" y1="347.6454" y2="339.6826"/><ellipse cx="483.9404" cy="353.6174" fill="none" rx="6.25" ry="6.25" style="stroke:#2F4F4F;stroke-width:1.5625;"/><text fill="#000000" font-family="sans-serif" font-size="20.3125" lengthAdjust="spacing" textLength="223.4375" x="483.7813" y="504.4746">N:1 ownerType=Driver</text></g><!--MD5=[82c8f317d19de3e63f0092826b051bfd]
link Document to Vehicle--><g id="link_Document_Vehicle"><path codeLine="24" d="M308.6563,344.2451 C289.75,355.7295 271.3594,369.7451 257.2187,386.4014 C242.5625,403.667 232.9531,426.6982 226.7969,447.1826 " fill="none" id="Document-Vehicle" style="stroke:#2F4F4F;stroke-width:1.5625;"/><line style="stroke:#2F4F4F;stroke-width:1.5625;" x1="231.0623" x2="219.0126" y1="455.1796" y2="451.8547"/><line style="stroke:#2F4F4F;stroke-width:1.5625;" x1="232.3091" x2="220.2594" y1="450.6609" y2="447.3361"/><line style="stroke:#2F4F4F;stroke-width:1.5625;" x1="226.6998" x2="223.375" y1="447.4923" y2="459.542"/><line style="stroke:#2F4F4F;stroke-width:1.5625;" x1="309.0023" x2="315.1054" y1="344.0525" y2="329.6687"/><line style="stroke:#2F4F4F;stroke-width:1.5625;" x1="309.0023" x2="324.5196" y1="344.0525" y2="345.884"/><line style="stroke:#2F4F4F;stroke-width:1.5625;" x1="309.0023" x2="319.8125" y1="344.0525" y2="337.7764"/><ellipse cx="300.8947" cy="348.7596" fill="none" rx="6.25" ry="6.25" style="stroke:#2F4F4F;stroke-width:1.5625;"/><text fill="#000000" font-family="sans-serif" font-size="20.3125" lengthAdjust="spacing" textLength="235.9375" x="258.7812" y="406.8184">N:1 ownerType=Vehicle</text></g><!--MD5=[250ae474fbaf7604e4721944620204ff]
@startuml
title Vendor Management System - ER Diagram 
skinparam backgroundColor #F9F9F9
skinparam entityBorderColor #4A90E2
skinparam entityBackgroundColor #EAF3FC
skinparam ArrowColor #2F4F4F
skinparam roundcorner 15
skinparam shadowing false
skinparam dpi 150

entity "Vendor" as Vendor
entity "Vehicle" as Vehicle
entity "Driver" as Driver
entity "Document" as Document
entity "Permissions" as Permissions

' ===== Relationships (with visible labels) =====
Vendor ||- -o{ Vendor : "1:N parentVendorId"
Vendor ||- -o{ Vehicle : "1:N owns"
Vendor ||- -o{ Driver : "1:N manages"
Vendor ||- -o{ Document : "1:N uploads"
Vendor ||- -|| Permissions : "1:1 hasPermissions"
Vehicle ||- -o{ Driver : "1:N assigns"
Document }o- -|| Driver : "N:1 ownerType=Driver"
Document }o- -|| Vehicle : "N:1 ownerType=Vehicle"
@enduml

@startuml
title Vendor Management System - ER Diagram 
skinparam backgroundColor #F9F9F9
skinparam entityBorderColor #4A90E2
skinparam entityBackgroundColor #EAF3FC
skinparam ArrowColor #2F4F4F
skinparam roundcorner 15
skinparam shadowing false
skinparam dpi 150

entity "Vendor" as Vendor
entity "Vehicle" as Vehicle
entity "Driver" as Driver
entity "Document" as Document
entity "Permissions" as Permissions

Vendor ||- -o{ Vendor : "1:N parentVendorId"
Vendor ||- -o{ Vehicle : "1:N owns"
Vendor ||- -o{ Driver : "1:N manages"
Vendor ||- -o{ Document : "1:N uploads"
Vendor ||- -|| Permissions : "1:1 hasPermissions"
Vehicle ||- -o{ Driver : "1:N assigns"
Document }o- -|| Driver : "N:1 ownerType=Driver"
Document }o- -|| Vehicle : "N:1 ownerType=Vehicle"
@enduml

PlantUML version 1.2022.7(Mon Aug 22 17:01:30 UTC 2022)
(GPL source distribution)
Java Runtime: OpenJDK Runtime Environment
JVM: OpenJDK 64-Bit Server VM
Default Encoding: UTF-8
Language: en
Country: null
--></g></svg>